<svg width="863" height="67" viewBox="0 0 863 67" fill="none" xmlns="http://www.w3.org/2000/svg">
<path d="M0 30C0 13.4315 13.4315 0 30 0H833C849.569 0 863 13.4315 863 30V37C863 53.5685 849.569 67 833 67H0V30Z" fill="url(#paint0_linear_4_11)"/>
<path d="M378.4 47C378.107 47 377.88 46.92 377.72 46.76C377.56 46.5733 377.48 46.3467 377.48 46.08V19.92C377.48 19.6533 377.56 19.44 377.72 19.28C377.88 19.0933 378.107 19 378.4 19H380.52C380.787 19 381 19.0933 381.16 19.28C381.347 19.44 381.44 19.6533 381.44 19.92V46.08C381.44 46.3467 381.347 46.5733 381.16 46.76C381 46.92 380.787 47 380.52 47H378.4ZM389.338 47C389.044 47 388.818 46.92 388.658 46.76C388.498 46.5733 388.418 46.3467 388.418 46.08V19.96C388.418 19.6667 388.498 19.44 388.658 19.28C388.818 19.0933 389.044 19 389.338 19H399.498C401.471 19 403.178 19.32 404.618 19.96C406.084 20.6 407.218 21.56 408.018 22.84C408.818 24.0933 409.218 25.6667 409.218 27.56C409.218 29.4533 408.818 31.0267 408.018 32.28C407.218 33.5333 406.084 34.48 404.618 35.12C403.178 35.76 401.471 36.08 399.498 36.08H392.418V46.08C392.418 46.3467 392.324 46.5733 392.138 46.76C391.978 46.92 391.751 47 391.458 47H389.338ZM392.378 32.72H399.298C401.271 32.72 402.751 32.28 403.738 31.4C404.724 30.52 405.218 29.24 405.218 27.56C405.218 25.9067 404.738 24.6267 403.778 23.72C402.818 22.8133 401.324 22.36 399.298 22.36H392.378V32.72ZM415.002 47C414.735 47 414.508 46.92 414.322 46.76C414.162 46.5733 414.082 46.3467 414.082 46.08V19.96C414.082 19.6667 414.162 19.44 414.322 19.28C414.508 19.0933 414.735 19 415.002 19H417.002C417.322 19 417.562 19.08 417.722 19.24C417.882 19.4 417.975 19.5333 418.002 19.64L426.482 35.8L435.002 19.64C435.055 19.5333 435.148 19.4 435.282 19.24C435.442 19.08 435.682 19 436.002 19H437.962C438.255 19 438.482 19.0933 438.642 19.28C438.828 19.44 438.922 19.6667 438.922 19.96V46.08C438.922 46.3467 438.828 46.5733 438.642 46.76C438.482 46.92 438.255 47 437.962 47H436.002C435.735 47 435.508 46.92 435.322 46.76C435.162 46.5733 435.082 46.3467 435.082 46.08V26.4L428.402 39.44C428.295 39.7067 428.135 39.92 427.922 40.08C427.708 40.2133 427.442 40.28 427.122 40.28H425.882C425.535 40.28 425.255 40.2133 425.042 40.08C424.855 39.92 424.695 39.7067 424.562 39.44L417.882 26.4V46.08C417.882 46.3467 417.788 46.5733 417.602 46.76C417.442 46.92 417.228 47 416.962 47H415.002ZM451.119 47.4C449.786 47.4 448.573 47.1333 447.479 46.6C446.386 46.0667 445.506 45.3467 444.839 44.44C444.173 43.5333 443.839 42.5067 443.839 41.36C443.839 39.52 444.586 38.0533 446.079 36.96C447.573 35.8667 449.519 35.1467 451.919 34.8L457.879 33.96V32.8C457.879 31.52 457.506 30.52 456.759 29.8C456.039 29.08 454.853 28.72 453.199 28.72C451.999 28.72 451.026 28.96 450.279 29.44C449.559 29.92 449.053 30.5333 448.759 31.28C448.599 31.68 448.319 31.88 447.919 31.88H446.119C445.826 31.88 445.599 31.8 445.439 31.64C445.306 31.4533 445.239 31.24 445.239 31C445.239 30.6 445.386 30.1067 445.679 29.52C445.999 28.9333 446.479 28.36 447.119 27.8C447.759 27.24 448.573 26.7733 449.559 26.4C450.573 26 451.799 25.8 453.239 25.8C454.839 25.8 456.186 26.0133 457.279 26.44C458.373 26.84 459.226 27.3867 459.839 28.08C460.479 28.7733 460.933 29.56 461.199 30.44C461.493 31.32 461.639 32.2133 461.639 33.12V46.08C461.639 46.3467 461.546 46.5733 461.359 46.76C461.199 46.92 460.986 47 460.719 47H458.879C458.586 47 458.359 46.92 458.199 46.76C458.039 46.5733 457.959 46.3467 457.959 46.08V44.36C457.613 44.84 457.146 45.32 456.559 45.8C455.973 46.2533 455.239 46.64 454.359 46.96C453.479 47.2533 452.399 47.4 451.119 47.4ZM451.959 44.4C453.053 44.4 454.053 44.1733 454.959 43.72C455.866 43.24 456.573 42.5067 457.079 41.52C457.613 40.5333 457.879 39.2933 457.879 37.8V36.68L453.239 37.36C451.346 37.6267 449.919 38.08 448.959 38.72C447.999 39.3333 447.519 40.12 447.519 41.08C447.519 41.8267 447.733 42.4533 448.159 42.96C448.613 43.44 449.173 43.8 449.839 44.04C450.533 44.28 451.239 44.4 451.959 44.4ZM468.35 54.6C468.083 54.6 467.856 54.5067 467.67 54.32C467.51 54.16 467.43 53.9467 467.43 53.68V27.12C467.43 26.8533 467.51 26.64 467.67 26.48C467.856 26.2933 468.083 26.2 468.35 26.2H470.19C470.456 26.2 470.67 26.2933 470.83 26.48C471.016 26.64 471.11 26.8533 471.11 27.12V28.88C471.75 28 472.603 27.2667 473.67 26.68C474.736 26.0933 476.07 25.8 477.67 25.8C479.163 25.8 480.43 26.0533 481.47 26.56C482.536 27.0667 483.403 27.76 484.07 28.64C484.763 29.52 485.283 30.52 485.63 31.64C485.976 32.76 486.163 33.96 486.19 35.24C486.216 35.6667 486.23 36.12 486.23 36.6C486.23 37.08 486.216 37.5333 486.19 37.96C486.163 39.2133 485.976 40.4133 485.63 41.56C485.283 42.68 484.763 43.68 484.07 44.56C483.403 45.4133 482.536 46.1067 481.47 46.64C480.43 47.1467 479.163 47.4 477.67 47.4C476.123 47.4 474.816 47.12 473.75 46.56C472.71 45.9733 471.856 45.2533 471.19 44.4V53.68C471.19 53.9467 471.11 54.16 470.95 54.32C470.79 54.5067 470.563 54.6 470.27 54.6H468.35ZM476.83 44.16C478.216 44.16 479.296 43.8667 480.07 43.28C480.87 42.6667 481.443 41.88 481.79 40.92C482.136 39.9333 482.336 38.88 482.39 37.76C482.416 36.9867 482.416 36.2133 482.39 35.44C482.336 34.32 482.136 33.28 481.79 32.32C481.443 31.3333 480.87 30.5467 480.07 29.96C479.296 29.3467 478.216 29.04 476.83 29.04C475.523 29.04 474.456 29.3467 473.63 29.96C472.83 30.5733 472.23 31.36 471.83 32.32C471.456 33.2533 471.243 34.2133 471.19 35.2C471.163 35.6267 471.15 36.1333 471.15 36.72C471.15 37.3067 471.163 37.8267 471.19 38.28C471.216 39.2133 471.43 40.1333 471.83 41.04C472.256 41.9467 472.883 42.6933 473.71 43.28C474.536 43.8667 475.576 44.16 476.83 44.16Z" fill="white"/>
<defs>
<linearGradient id="paint0_linear_4_11" x1="7" y1="67" x2="614" y2="67" gradientUnits="userSpaceOnUse">
<stop stop-color="#4F8BFF"/>
<stop offset="1" stop-color="#363BB3"/>
</linearGradient>
</defs>
</svg>
